Coordinates
version=1
nRows=12
nColumns=33
inDegrees=yes

Units are S.I. units (second, meters, Newtons, ...)
Angles are in degrees.

endheader
time	ground_thorax_rot_x	ground_thorax_rot_y	ground_thorax_rot_z	ground_thorax_tx	ground_thorax_ty	ground_thorax_tz	clav_prot_r	clav_elev_r	scapula_abduction_r	scapula_elevation_r	scapula_upward_rot_r	scapula_winging_r	shoulder_elv_r	plane_of_elev_r	axial_rot_r	elbow_flexion_r	pro_sup_r	wrist_flex_r	wrist_dev_r	clav_prot_l	clav_elev_l	scapula_abduction_l	scapula_elevation_l	scapula_upward_rot_l	scapula_winging_l	shoulder_elv_l	plane_of_elev_l	axial_rot_l	elbow_flexion_l	pro_sup_l	wrist_flex_l	wrist_dev_l
      5.00000000	      2.72720474	      1.18304832	     10.86041712	     -0.11505199	      1.03873021	      0.02602884	      5.37845016	     12.10000068	     20.44211870	      7.50733600	     23.64520758	    -11.33823519	     18.60781659	    -75.28959256	     62.44761094	     56.48089134	    -23.11284328	     70.00000021	    -24.99999983	     10.85307314	     -4.57149509	    -16.17413358	    -21.29900638	    -43.66804500	     -0.76661998	     61.96706526	    -39.35535959	     -3.41863943	     70.87298437	     24.53531702	      0.08418287	    -24.99999983
      5.01000000	      2.87601265	      1.30019432	     10.81423616	     -0.11546281	      1.03897295	      0.02611899	      5.10626636	     12.11069378	     20.34163261	      7.36046364	     24.14059870	    -11.36063720	     18.26120890	    -75.35404566	     62.67784599	     55.84270684	    -22.83431191	     70.00000021	    -24.99999983	     10.96987139	     -4.90266740	    -16.55504700	    -21.21855495	    -44.20793062	     -0.65573641	     61.99837710	    -39.13131043	     -3.50869121	     70.28164021	     24.44357859	     -0.60891003	    -24.99999983
      5.02000000	      2.90618980	      1.30925423	     10.97625519	     -0.11564183	      1.03863594	      0.02624708	      5.02513706	     12.06654157	     20.18375208	      7.33181082	     24.12275149	    -11.30654347	     18.24702518	    -75.39692910	     62.61147466	     55.75696069	    -22.82835656	     70.00000021	    -24.99999983	     10.92572370	     -4.93133503	    -16.54076041	    -21.27974505	    -44.40247121	     -0.69158426	     61.92151377	    -39.24832624	     -3.52811405	     70.01566447	     24.46314631	     -0.70016008	    -24.99999983
      5.03000000	      2.93319967	      1.33137193	     10.99314627	     -0.11590797	      1.03820437	      0.02628612	      5.00905931	     12.00409336	     20.16929211	      7.28112228	     24.11695506	    -11.29714417	     18.22343949	    -75.33720306	     62.60615388	     55.74319442	    -22.81675186	     70.00000021	    -24.99999983	     10.90631734	     -4.97591923	    -16.53439181	    -21.27473911	    -44.48422338	     -0.69969595	     61.85584903	    -39.24508373	     -3.59721585	     69.92481745	     24.47891536	     -0.71540061	    -24.99999983
      5.04000000	      2.95961104	      1.39047738	     11.12828510	     -0.11627827	      1.03830264	      0.02645113	      4.99763130	     11.85229773	     20.10201423	      7.19042587	     24.00433183	    -11.26169001	     18.21902525	    -75.20907408	     62.56512760	     55.45950204	    -22.78225888	     70.00000021	    -24.99999983	     10.92570759	     -5.11518674	    -16.59766051	    -21.18223969	    -44.57656863	     -0.67975715	     61.89308642	    -39.15079761	     -3.76011389	     69.38172300	     24.55454136	     -0.79596001	    -24.99999983
      5.05000000	      2.95245766	      1.44251332	     11.19578600	     -0.11657466	      1.03779206	      0.02649540	      4.99505881	     11.82566249	     20.10925139	      7.16651592	     24.00767672	    -11.26552501	     18.22095483	    -75.15884846	     62.55644628	     55.45075864	    -22.77398842	     70.00000021	    -24.99999983	     10.92111452	     -5.14700343	    -16.58929037	    -21.14527423	    -44.56141543	     -0.67792885	     61.90588891	    -39.08315798	     -3.77138257	     69.37619865	     24.55890276	     -0.81478743	    -24.99999983
      5.06000000	      2.97400579	      1.58582799	     11.20388339	     -0.11679971	      1.03784216	      0.02667343	      4.98415275	     11.63896099	     19.97959990	      7.07697466	     23.80452313	    -11.20137763	     18.27007027	    -74.90507258	     62.48569466	     55.14974024	    -22.68518131	     70.00000021	    -24.99999983	     10.97060966	     -5.31035770	    -16.69884201	    -21.01898412	    -44.63356881	     -0.61622111	     62.08881446	    -38.78973689	     -4.01602896	     68.95585835	     24.66220113	     -1.04844650	    -24.99999983
      5.07000000	      2.94347209	      1.60984602	     11.29109190	     -0.11694229	      1.03728813	      0.02677689	      4.98473535	     11.63518164	     19.99308166	      7.06786006	     23.81993851	    -11.19982385	     18.27920002	    -74.87421978	     62.47890527	     55.15785085	    -22.68245510	     70.00000021	    -24.99999983	     10.97600276	     -5.33225453	    -16.69388145	    -20.97914850	    -44.59147361	     -0.61715039	     62.12148492	    -38.72478375	     -4.00303993	     68.97582872	     24.66024719	     -1.06130331	    -24.99999983
      5.08000000	      2.92237306	      1.80037072	     11.23780308	     -0.11713205	      1.03707126	      0.02692532	      5.02630120	     11.51846456	     19.93706172	      7.03514488	     23.61643609	    -11.15754049	     18.35162045	    -74.66127778	     62.48772840	     55.03901992	    -22.62389796	     70.00000021	    -24.99999983	     11.06168572	     -5.47817596	    -16.83936235	    -20.83324477	    -44.58414600	     -0.53979305	     62.38828952	    -38.42119763	     -4.19339835	     68.75661378	     24.72793445	     -1.31384799	    -24.99999983
      5.09000000	      2.89146765	      1.88802103	     11.31743404	     -0.11702379	      1.03662613	      0.02708191	      5.04079685	     11.51037348	     19.91869793	      7.04717437	     23.55848140	    -11.14400284	     18.34091579	    -74.64854428	     62.52335743	     55.06207533	    -22.60912429	     70.00000021	    -24.99999983	     11.07050236	     -5.52051881	    -16.84012140	    -20.77165748	    -44.53742474	     -0.52672294	     62.47310766	    -38.31172037	     -4.17335104	     68.77217168	     24.72875713	     -1.38293932	    -24.99999983
      5.10000000	      2.70473315	      2.35371315	     11.37729248	     -0.11700893	      1.03645628	      0.02750734	      4.62158030	     11.27045581	     18.52671617	      7.12202190	     22.77951914	    -10.61463505	     19.81162812	    -73.85918494	     63.41268194	     55.42548434	    -22.54451445	     70.00000021	    -24.99999983	     11.45062910	     -5.66437706	    -17.66156861	    -20.82406678	    -45.00000000	     -0.22217184	     62.99341581	    -37.82484326	     -4.82143446	     68.44859740	     24.78074162	     -5.02395063	    -24.99999983
      5.11000000	      2.66042366	      2.42782648	     11.38321197	     -0.11682487	      1.03609673	      0.02763086	      4.67713285	     11.28352060	     18.62608872	      7.13202463	     22.77787535	    -10.64225915	     19.78145883	    -73.85182180	     63.51128500	     55.45394210	    -22.52713373	     70.00000021	    -24.99999983	     11.48881988	     -5.70026322	    -17.70262753	    -20.75275309	    -44.92276105	     -0.18944330	     63.09694058	    -37.71038247	     -4.77989182	     68.45521140	     24.76664590	     -5.04865352	    -24.99999983
